<svg width="40" height="40" viewBox="0 0 40 40" fill="none" xmlns="http://www.w3.org/2000/svg">
<g clip-path="url(#clip0_150_43)">
<path d="M34.7016 36.5H5.40156C2.50156 36.5 0.101562 34.1 0.101562 31.2V9.8C0.101562 6.9 2.50156 4.5 5.40156 4.5H34.7016C37.6016 4.5 40.0016 6.9 40.0016 9.8V31.1C40.0016 34.1 37.6016 36.5 34.7016 36.5ZM5.40156 6.5C3.50156 6.5 2.00156 8 2.00156 9.8V31.1C2.00156 32.9 3.50156 34.4 5.30156 34.4H34.6016C36.4016 34.4 37.9016 32.9 37.9016 31.1V9.8C37.9016 8 36.4016 6.5 34.6016 6.5H5.40156Z" fill="#010202"/>
<path d="M20.0015 23.8998C18.3015 23.8998 16.7015 23.0998 15.5015 21.7998L6.00151 10.3998C5.60151 9.99976 5.70151 9.39976 6.10151 8.99976C6.50151 8.59976 7.20151 8.69976 7.50151 9.09976L17.1015 20.5998C17.8015 21.4998 18.9015 21.9998 20.0015 21.9998C21.1015 21.9998 22.2015 21.4998 22.9015 20.5998L32.4015 9.19976C32.8015 8.79976 33.4015 8.69976 33.8015 9.09976C34.2015 9.49976 34.3015 10.0998 33.9015 10.4998L24.4015 21.8998C23.4015 23.1998 21.8015 23.8998 20.0015 23.8998ZM35.5015 31.7998C35.2015 31.7998 34.9015 31.6998 34.7015 31.3998L27.8015 23.1998C27.4015 22.7998 27.5015 22.0998 27.9015 21.7998C28.3015 21.3998 29.0015 21.4998 29.3015 21.8998L36.2015 30.0998C36.6015 30.4998 36.5015 31.1998 36.1015 31.4998C36.0015 31.6998 35.7015 31.7998 35.5015 31.7998ZM4.50151 31.6998C4.30151 31.6998 4.00151 31.5998 3.90151 31.4998C3.50151 31.0998 3.40151 30.4998 3.80151 30.0998L10.6015 21.9998C11.0015 21.5998 11.6015 21.4998 12.0015 21.8998C12.4015 22.2998 12.5015 22.8998 12.1015 23.2998L5.30151 31.3998C5.10151 31.5998 4.80151 31.6998 4.50151 31.6998Z" fill="#010202"/>
</g>
<defs>
<clipPath id="clip0_150_43">
<rect width="40" height="40" fill="white"/>
</clipPath>
</defs>
</svg>
