<svg width="32" height="32" viewBox="0 0 32 32" fill="none" xmlns="http://www.w3.org/2000/svg">
<path d="M27.6078 4.39052C28.1285 4.91122 28.1285 5.75544 27.6078 6.27614L6.27451 27.6095C5.75382 28.1302 4.9096 28.1302 4.3889 27.6095C3.8682 27.0888 3.8682 26.2446 4.3889 25.7239L25.7222 4.39052C26.2429 3.86983 27.0871 3.86983 27.6078 4.39052Z" fill="black"/>
<path d="M21.0644 7.16272C19.5627 6.4555 17.8694 6 15.9983 6C12.0729 6 8.93006 8.00492 6.69649 10.1329C4.45779 12.2658 3.00517 14.6396 2.43016 15.6664C2.05333 16.3393 2.00845 17.1428 2.31777 17.8565C2.53378 18.3549 2.90115 19.127 3.44261 20.023C3.82348 20.6532 4.64314 20.8553 5.27338 20.4745C5.90361 20.0936 6.10576 19.2739 5.72489 18.6437C5.28939 17.9231 4.98718 17.2999 4.80388 16.8859C5.34489 15.9324 6.62616 13.8831 8.53593 12.0636C10.5086 10.1842 13.0251 8.66667 15.9983 8.66667C17.0678 8.66667 18.0781 8.86299 19.0253 9.20185L21.0644 7.16272Z" fill="black"/>
<path d="M23.5857 12.1838C25.4265 13.9726 26.6637 15.9534 27.1928 16.8859C27.0095 17.2999 26.7073 17.9231 26.2718 18.6437C25.8909 19.2739 26.0931 20.0936 26.7233 20.4745C27.black 20.8553 28.1732 20.6532 28.5541 20.023C29.0955 19.127 29.4629 18.3549 29.6789 17.8565C29.9882 17.1428 29.9434 16.3393 29.5665 15.6664C29.0063 14.666 27.6131 12.3871 25.4715 10.2981L23.5857 12.1838Z" fill="black"/>
<path d="M15.9984 12C16.0735 12 16.1482 12.0016 16.2225 12.0046L10.6697 17.5575C10.6666 17.4831 10.665 17.4084 10.665 17.3333C10.665 14.3878 13.0529 12 15.9984 12Z" fill="black"/>
<path d="M15.9984 22.6667C15.1547 22.6667 14.3568 22.4708 13.6476 22.122L20.787 14.9826C21.1358 15.6917 21.3317 16.4897 21.3317 17.3333C21.3317 20.2789 18.9439 22.6667 15.9984 22.6667Z" fill="black"/>
</svg>
