<svg width="512" height="512" viewBox="0 0 512 512" fill="none" xmlns="http://www.w3.org/2000/svg">
<g clip-path="url(#clip0_150_47)">
<path d="M510.133 387.504C506.655 377.066 498.711 368.848 488.337 364.956L379.779 324.225C368.708 320.07 357.141 321.321 347.208 327.75L310.648 351.429C303.788 355.871 295.569 355.915 288.663 351.549C263.025 335.335 239.079 316.148 217.49 294.519L217.48 294.509C195.851 272.92 176.664 248.973 160.45 223.336C156.082 216.429 156.127 208.21 160.569 201.351L184.249 164.789C190.677 154.859 191.928 143.292 187.773 132.221L147.043 23.662C143.151 13.288 134.932 5.344 124.495 1.866C114.057 -1.613 102.715 -0.185997 93.3769 5.781L36.5519 42.086C7.79193 60.461 -5.67307 93.782 2.24893 126.975C24.2279 219.082 72.0799 303.614 140.568 371.371C208.385 439.92 292.917 487.771 385.025 509.75C391.204 511.232 397.536 511.985 403.89 511.991C430.361 511.991 455.036 498.732 469.913 475.447L506.219 418.622C512.185 409.284 513.612 397.942 510.133 387.504ZM492.736 410.008L456.429 466.833C441.776 489.767 415.205 500.503 388.737 494.188C299.538 472.902 217.655 426.542 151.88 360.058C85.4569 294.343 39.0969 212.46 17.8109 123.261C11.4949 96.793 22.2319 70.222 45.1669 55.569L101.991 19.263C105.362 17.109 109.189 16.005 113.042 16.005C115.19 16.005 117.348 16.348 119.437 17.045C125.273 18.99 129.875 23.45 132.063 29.283L172.795 137.842C175.157 144.136 174.474 150.448 170.82 156.092L147.141 192.653C139.332 204.711 139.25 219.745 146.929 231.887C163.775 258.525 183.707 283.402 206.173 305.827C228.599 328.293 253.475 348.225 280.114 365.072C292.256 372.75 307.289 372.668 319.348 364.859L355.906 341.181C361.552 337.526 367.864 336.842 374.159 339.205L482.718 379.936C488.55 382.124 493.01 386.726 494.955 392.562C496.899 398.399 496.091 404.757 492.736 410.008Z" fill="black"/>
</g>
<defs>
<clipPath id="clip0_150_47">
<rect width="512" height="512" fill="white"/>
</clipPath>
</defs>
</svg>
