<svg width="102" height="100" viewBox="0 0 102 100" fill="none" xmlns="http://www.w3.org/2000/svg">
<path d="M88.7334 48.0005C88.7055 63.2946 79.6743 76.4518 66.2873 82.3773C56.6585 86.682 44.89 86.5696 35.3289 82.0195C32.2472 80.5796 29.3703 78.718 26.7923 76.5103C0.599387 54.5132 16.4968 10.2627 51.2028 10.4724C71.9299 10.4721 88.7334 27.2757 88.7334 48.0005Z" fill="#FFD561"/>
<path d="M74.9178 77.0891C74.1299 77.7346 73.3147 78.3467 72.4753 78.9256C70.5359 80.262 68.4661 81.4196 66.2873 82.3773C62.8781 83.8743 59.2023 84.8803 55.3506 85.3046C53.99 85.4561 52.6051 85.5319 51.202 85.5319C49.3898 85.5319 47.611 85.4045 45.8685 85.1561C43.9412 84.8803 42.0593 84.4621 40.2381 83.9045C38.732 83.4469 37.2683 82.8954 35.8501 82.2559C35.6743 82.1801 35.5016 82.1014 35.3289 82.0196C34.4288 81.6014 33.553 81.1469 32.6955 80.6559C31.1197 79.765 29.6166 78.7589 28.1953 77.6558C28.7105 77.1467 29.2741 76.7103 29.8802 76.3346C30.0529 76.2254 30.2287 76.1224 30.4075 76.0255C31.6378 75.3466 33.6894 74.7012 36.0471 74.1194C36.6046 73.98 37.1743 73.8466 37.7532 73.7193C37.9229 73.6799 38.0986 73.6405 38.2713 73.6042C38.8411 73.4799 39.4199 73.3587 39.9987 73.2436C40.3078 73.1799 40.6199 73.1193 40.9321 73.0617C41.3987 72.9709 41.8654 72.883 42.326 72.7981C42.4533 72.7739 42.5806 72.7526 42.7048 72.7285C42.7381 72.7223 42.7624 72.7193 42.7897 72.7133C42.8169 72.7101 42.8442 72.7042 42.8685 72.7011C43.5382 72.5799 44.1958 72.4648 44.8321 72.3587C45.0473 72.3223 45.2595 72.2859 45.4685 72.2526C49.3232 71.6193 53.2384 71.4921 57.1113 71.8738C57.481 71.9071 57.8507 71.9496 58.2174 71.9981C58.7022 72.0557 59.181 72.1224 59.6598 72.2011C59.8356 72.2254 60.0083 72.2526 60.1841 72.283C60.7568 72.3799 61.3144 72.4829 61.8629 72.589C62.3326 72.68 62.7932 72.7739 63.2417 72.8708C64.4084 73.1193 65.5115 73.389 66.5479 73.677C66.7236 73.7224 66.8994 73.7708 67.0691 73.8224C68.6874 74.2831 70.1298 74.7799 71.3814 75.2922C72.8178 75.8801 74.0057 76.4891 74.9178 77.0891Z" fill="#8C4949"/>
<path d="M75.2126 76.8498C61.8912 88.2305 41.1155 88.4032 27.6113 77.1892C31.4933 74.7761 35.901 73.2451 39.7268 72.2527C40.4576 75.3609 41.9174 80.2152 45.524 82.1681C48.015 83.8883 53.722 83.9098 55.7848 82.1285C58.944 80.138 58.9169 74.7957 59.6668 72.1799C64.9488 72.7815 70.5438 74.0836 75.2126 76.8498Z" fill="#EDEDED"/>
<path d="M75.6208 76.5014C69.9081 81.3988 62.9146 84.4664 55.3506 85.3048C55.3782 85.0397 55.7938 82.0792 55.8112 81.9198C57.6395 79.0963 60.2749 75.043 62.0902 72.2346C66.7536 72.7641 71.917 74.1174 75.6208 76.5014Z" fill="#DE6A5B"/>
<path d="M45.8693 85.1563C38.8309 84.1637 32.1709 81.1268 26.793 76.5105C30.6936 74.1542 35.5177 72.901 40.5025 72.2317C40.7449 72.6997 42.8789 76.815 43.1783 77.3924C43.1783 77.3955 43.3753 77.7712 43.3753 77.7712L45.4844 81.8379C45.5561 82.4474 45.7938 84.514 45.8693 85.1563Z" fill="#DE6A5B"/>
<path d="M59.6143 75.9769C59.6143 75.9769 61.4371 77.3787 62.6834 78.8929C62.6834 78.8929 53.2092 83.2497 50.7319 85.4691C50.7319 85.4691 44.2432 81.511 38.9881 80.2637L41.0201 77.5356L35.8809 74.2935C35.8809 74.2935 39.0076 70.8037 43.1945 71.8078C42.8314 72.6883 41.6083 74.0907 44.5368 76.6161C48.3067 79.8677 50.745 81.912 50.745 81.912C50.745 81.912 57.2452 77.1375 58.3236 74.5558C58.9736 72.9981 58.2522 72.2914 57.99 71.419C63.0331 71.3363 65.1714 74.697 65.1714 74.697C65.1714 74.697 61.6622 74.4627 59.6143 75.9769Z" fill="white"/>
<path d="M43.2721 61.7561C43.2721 61.7561 43.9796 67.4161 42.6825 72.8404C42.3592 74.1925 43.7912 75.4613 44.5554 76.2837C46.0189 77.8584 47.8649 78.3455 50.1113 78.5004C53.5309 78.7363 57.5806 76.5984 58.2477 73.43C58.7193 71.1895 56.8327 71.6612 57.3043 61.5202C57.7329 52.3055 43.0362 52.0868 43.2721 61.7561Z" fill="#8C4949"/>
<path d="M50.3464 70.1603C52.8248 70.1603 55.2051 68.6902 57.2608 66.3099C57.2096 65.0459 57.2123 63.4824 57.3036 61.5203C57.7322 52.3055 43.0356 52.0868 43.2714 61.7561C43.2714 61.7561 43.5384 63.8982 43.4427 66.8083C45.4699 68.9743 47.8437 70.1603 50.3464 70.1603Z" fill="#7D3F3F"/>
<path d="M50.2292 28.3856C50.2292 28.3856 37.2582 27.796 37.1403 42.5357C37.0224 57.2754 43.1541 67.0626 50.3471 67.0626C57.5401 67.0626 63.9077 54.6813 63.9077 43.597C63.9077 32.5127 57.5401 28.3856 50.2292 28.3856Z" fill="#8C4949"/>
<path d="M47.6595 43.6467C47.6595 43.6467 48.2765 43.6162 48.3279 44.0578C48.3849 44.5476 48.4535 44.7834 48.1668 44.8988C47.88 45.0142 45.056 44.9299 43.5247 44.9856C41.9756 45.042 41.3001 45.1565 41.1989 45.0011C41.0976 44.8457 42.4025 44.007 43.9631 43.8691C45.7815 43.7084 45.7397 43.7003 47.6595 43.6467Z" fill="#121D3F"/>
<path d="M52.7319 43.6467C52.7319 43.6467 52.1149 43.6162 52.0635 44.0578C52.0065 44.5476 51.9379 44.7834 52.2246 44.8988C52.5114 45.0142 55.3354 44.9299 56.8667 44.9856C58.4158 45.042 59.0913 45.1565 59.1925 45.0011C59.2938 44.8457 57.9888 44.007 56.4283 43.8691C54.6099 43.7084 54.6517 43.7003 52.7319 43.6467Z" fill="#121D3F"/>
<path d="M45.9559 58.1983C46.9721 59.2553 50.2638 61.9473 54.7107 58.215C54.8692 58.082 54.7756 57.8232 54.5687 57.8232H46.1156C45.9202 57.8233 45.8205 58.0574 45.9559 58.1983Z" fill="white"/>
<path d="M51.1997 61.8936C51.166 61.8936 51.1318 61.8875 51.0987 61.8748C50.2903 61.5638 49.2887 61.8769 49.2788 61.88C49.1302 61.9274 48.9722 61.8458 48.9247 61.6979C48.8772 61.5499 48.9583 61.3915 49.1063 61.3438C49.1548 61.3281 50.3039 60.9655 51.3008 61.3489C51.4461 61.4048 51.5185 61.5678 51.4627 61.713C51.4196 61.8249 51.3128 61.8936 51.1997 61.8936Z" fill="#723333"/>
<path d="M41.4243 51.9864C41.4243 51.9864 41.9043 50.7845 44.4945 50.8206C46.6002 50.85 48.1841 51.1926 48.165 52.6672C48.3045 54.58 40.3136 54.9455 41.4243 51.9864Z" fill="#7D3F3F"/>
<path d="M52.065 51.9864C52.065 51.9864 52.5449 50.7845 55.1352 50.8206C57.2408 50.85 58.8247 51.1926 58.8056 52.6672C58.9451 54.58 50.9542 54.9455 52.065 51.9864Z" fill="#7D3F3F"/>
<path d="M50.6358 54.028C50.1297 54.0734 49.1812 54.0765 48.7842 53.8917C48.7751 53.8856 48.7691 53.8825 48.763 53.8795C48.766 53.7856 48.8387 53.5614 48.9024 53.3643C48.9327 53.2674 48.966 53.1643 49.0024 53.0491C50.1539 49.2915 50.3631 47.4036 50.3721 47.3249C50.3934 47.1156 50.2418 46.9247 50.0297 46.9036C49.8176 46.8824 49.6327 47.0339 49.6085 47.243C49.6055 47.2612 49.3933 49.149 48.2691 52.8219C48.2357 52.934 48.2024 53.037 48.1721 53.128C47.9903 53.6916 47.7993 54.2765 48.46 54.5856C48.563 54.634 48.6812 54.6735 48.8115 54.7037C49.1873 54.7977 49.6327 54.822 50.0024 54.822C50.357 54.822 50.6388 54.7977 50.7055 54.7947C50.8388 54.7795 50.954 54.6978 51.0115 54.5825C51.0449 54.522 51.06 54.4522 51.0539 54.3764C51.0328 54.1675 50.8479 54.0098 50.6358 54.028Z" fill="#723333"/>
<path d="M55.3968 49.6039C56.0777 49.6039 56.6296 48.8865 56.6296 48.0016C56.6296 47.1166 56.0777 46.3992 55.3968 46.3992C54.716 46.3992 54.1641 47.1166 54.1641 48.0016C54.1641 48.8865 54.716 49.6039 55.3968 49.6039Z" fill="#121D3F"/>
<path d="M46.6394 48.0016C46.6394 48.8865 46.0875 49.604 45.4066 49.604C44.7258 49.604 44.1738 48.8865 44.1738 48.0016C44.1738 47.1166 44.7258 46.3992 45.4066 46.3992C46.0874 46.3992 46.6394 47.1166 46.6394 48.0016Z" fill="#121D3F"/>
<path d="M72.4753 78.9256C70.5359 80.2621 68.4661 81.4196 66.2873 82.3773C65.7285 81.5092 65.4671 80.6441 65.4358 79.8741C63.8483 80.6711 59.6891 81.5602 58.9326 78.1891C58.6558 77.169 58.2733 75.6813 58.1052 74.9892C57.8997 74.1783 57.6992 73.3144 57.3658 72.7952C57.2143 72.5315 57.1416 72.2285 57.1113 71.8739C57.0295 71.0466 57.1628 69.9284 56.9871 68.3375C56.9204 67.7284 56.9173 67.1707 56.9507 66.6586C57.0123 65.3117 57.3393 64.4259 57.2143 63.2677C59.08 61.4688 63.9802 52.3526 62.6779 47.2641C62.3872 45.4731 61.7993 43.7943 61.275 42.364C60.3295 39.779 60.7689 37.3184 60.1386 36.8154C59.5083 36.3093 55.7264 37.885 54.6536 34.8607C54.6536 34.8607 50.6838 34.8607 50.305 31.3303C50.305 31.3303 49.611 34.6093 46.3958 34.2941C46.3958 34.2941 45.1352 35.9941 43.2442 36.3729C39.995 37.2851 44.1779 39.8267 39.7138 42.9943C37.2048 44.7331 38.715 46.7814 38.4442 49.1127C38.3623 50.243 38.1804 51.3976 38.3077 52.3189C38.4112 52.9806 38.544 53.6097 38.7047 54.2825C39.5784 57.8179 41.1467 61.2953 43.6897 63.9677C44.1945 67.8867 46.3657 74.7237 42.7927 78.4922C42.0401 79.2853 41.2889 79.5424 40.838 80.7924C40.5312 81.4249 40.4898 82.9861 40.238 83.9046C37.6007 83.0987 35.0805 82.0175 32.6954 80.656C32.9078 80.3332 33.2057 80.044 33.4075 79.8741C31.9443 79.8261 29.4843 78.3575 29.9226 75.88C30.1734 74.4081 31.3442 73.2596 32.2741 72.183C33.3863 70.9072 34.6439 67.1889 34.753 63.9889C35.0195 59.9951 31.9914 55.9101 31.8953 51.8189C31.8691 50.2754 32.0773 48.7575 32.3348 47.243C34.1222 39.7908 31.1366 23.8027 49.8625 26.5393C61.3397 23.0938 70.6748 31.6073 68.7686 45.8826C68.4358 50.1522 67.7358 52.4945 67.8115 54.7371C67.8459 55.508 67.9522 56.2189 68.1812 56.9796C69.1267 60.1312 72.0541 63.1676 69.9116 67.2011C67.3425 71.6828 68.2032 72.3178 71.0391 74.8314C71.928 75.9289 72.444 77.3556 72.4753 78.9256Z" fill="#212851"/>
<path d="M34.3107 53.8764C32.3438 51.1404 32.581 47.5547 32.5837 47.5188C32.594 47.3775 32.488 47.2546 32.3468 47.2443C32.3426 47.2438 32.3387 47.2445 32.3346 47.2443C32.245 47.7806 32.1621 48.3157 32.0918 48.851C32.1938 50.2099 32.5778 52.3447 33.8943 54.176C36.1556 57.3211 35.8612 61.2658 34.7565 63.221C34.7632 63.4727 34.7622 63.729 34.7531 63.9892C34.8257 63.9834 34.8954 63.9485 34.9413 63.8847C36.5263 61.6794 36.6511 57.1317 34.3107 53.8764Z" fill="#121D3F"/>
<path d="M50.3054 31.3298C50.1624 30.9417 50.0726 30.5474 49.995 30.1517C49.9208 29.7556 49.8665 29.3574 49.8294 28.9576C49.7921 28.5578 49.7728 28.1563 49.7735 27.7534C49.7771 27.3503 49.7937 26.9461 49.8641 26.5383C50.0079 26.9292 50.0981 27.3237 50.1754 27.7191C50.2495 28.1147 50.3037 28.5118 50.3401 28.9105C50.3765 29.3093 50.3958 29.7096 50.3951 30.1122C50.3911 30.5151 50.3749 30.9193 50.3054 31.3298Z" fill="#121D3F"/>
<path d="M36.4198 51.1705C36.3122 51.1705 36.212 51.1024 36.1764 50.9945C34.4539 45.7837 35.4405 43.937 36.3345 42.4798C36.7723 41.766 37.1181 41.2022 37.0614 40.4271C36.8631 37.7167 37.0969 32.8161 40.8922 30.4486C45.907 27.32 49.8509 28.5196 50.0164 28.5722C50.1514 28.6151 50.2261 28.7594 50.1831 28.8943C50.1402 29.0294 49.9961 29.1037 49.8611 29.0611C49.8108 29.0454 45.9583 27.8929 41.1637 30.8837C37.597 33.1089 37.3831 37.7945 37.573 40.3897C37.6418 41.3296 37.2191 42.0186 36.7717 42.748C35.8835 44.1959 35.0157 45.849 36.6635 50.8335C36.7079 50.968 36.6349 51.113 36.5004 51.1575C36.4737 51.1663 36.4466 51.1705 36.4198 51.1705Z" fill="#121D3F"/>
<path d="M63.9907 50.3274C63.9826 50.3274 63.9744 50.327 63.9661 50.3262C63.8251 50.3128 63.7217 50.1878 63.7351 50.0467C63.8698 48.6238 64.7162 47.4167 64.9298 46.0824C65.6041 41.8698 66.2412 37.8908 63.8022 33.9968C61.7736 30.7579 58.908 29.0822 55.2851 29.0161C52.5709 28.966 50.441 29.8832 50.4197 29.8926C50.29 29.9492 50.1388 29.8899 50.082 29.7602C50.0254 29.6303 50.0846 29.4791 50.2145 29.4224C50.3053 29.3828 52.4701 28.4515 55.2944 28.5033C57.9119 28.5509 61.5882 29.4955 64.2369 33.7246C66.7781 37.7817 66.1263 41.853 65.4362 46.1633C65.2239 47.4898 64.3789 48.6886 64.2457 50.0951C64.2331 50.2278 64.1214 50.3274 63.9907 50.3274Z" fill="#121D3F"/>
<path d="M44.3117 67.6302C44.0798 66.2767 43.825 65.0174 43.6898 63.9677C40.6728 60.8002 38.9839 56.41 38.3076 52.3172C38.1775 52.2804 38.0489 52.2587 37.9229 52.2559C38.1369 55.2822 38.9743 62.5989 44.3117 67.6302Z" fill="#121D3F"/>
<path d="M41.7365 62.6412C41.8288 62.5337 41.8162 62.3717 41.7087 62.2796C41.6013 62.1872 41.4393 62.1999 41.3471 62.3073C39.1861 64.8285 39.5604 68.4306 42.4599 73.0137C44.3001 75.9225 42.777 78.4351 42.7112 78.5408C42.6985 78.5612 42.6901 78.5828 42.6837 78.6047C42.9687 78.3243 43.2636 77.976 43.5592 77.4789C43.6313 77.3576 43.6955 77.235 43.7551 77.1116C43.9734 75.9828 43.9483 74.4071 42.8933 72.7395C40.1284 68.369 39.7392 64.9714 41.7365 62.6412Z" fill="#121D3F"/>
<path d="M67.0152 72.731C66.7929 69.804 65.414 68.5971 64.0806 67.4299C63.0894 66.5624 62.1533 65.7429 61.7099 64.2302C60.8135 61.1718 62.467 59.1445 63.6744 57.664C63.8591 57.4376 64.0336 57.2237 64.1898 57.0182C65.2963 55.5623 65.8812 53.6772 65.8812 51.5673C65.8812 51.4257 65.7664 51.3108 65.6247 51.3108C65.483 51.3108 65.3682 51.4257 65.3682 51.5673C65.3682 53.5642 64.8195 55.3419 63.7813 56.7079C63.6305 56.9065 63.4587 57.117 63.2769 57.3399C61.9975 58.9086 60.2453 61.0569 61.2176 64.3745C61.703 66.0306 62.74 66.9381 63.7428 67.816C65.0565 68.9658 66.2973 70.052 66.5038 72.7698C66.8685 77.571 65.2507 79.6946 65.2342 79.7155C65.1738 79.7921 65.1651 79.8922 65.2013 79.9759C65.3511 79.9144 65.4356 79.8745 65.4356 79.8745C65.4356 79.9514 65.4412 80.0376 65.4508 80.1293C65.521 80.125 65.5893 80.0934 65.6365 80.0339C65.7085 79.9432 67.3968 77.754 67.0152 72.731Z" fill="#121D3F"/>
<path d="M67.3016 59.9191C67.2822 59.5994 67.2603 59.237 67.2603 58.8276C67.2603 57.6202 67.6382 56.3703 67.893 55.6646C67.8497 55.3542 67.8235 55.0466 67.8129 54.7373C67.7443 54.7579 67.6845 54.8058 67.6527 54.8763C67.6157 54.9581 66.7474 56.9031 66.7474 58.8276C66.7474 59.2525 66.7697 59.6231 66.7895 59.95C66.8577 61.0786 66.8989 61.7597 65.9264 63.0101C64.3131 65.0843 64.2624 67.2649 64.753 68.6139C64.791 68.7181 64.8893 68.7827 64.9941 68.7827C65.0232 68.7827 65.0528 68.7779 65.0817 68.7674C65.2148 68.719 65.2835 68.5717 65.2351 68.4386C64.7914 67.2185 64.8463 65.2342 66.3314 63.325C67.4225 61.9219 67.3718 61.0818 67.3016 59.9191Z" fill="#121D3F"/>
<path d="M39.0292 61.1559C37.12 63.0228 37.3594 66.0194 37.6128 69.192C37.7504 70.9143 37.8927 72.6951 37.6931 74.3591C37.1558 78.836 33.5147 79.5927 33.36 79.6228C33.2488 79.6442 33.1695 79.7346 33.1553 79.8409C33.3134 79.8675 33.4084 79.8746 33.4084 79.8746C33.4084 79.8746 33.3313 79.9359 33.2194 80.0424C33.2672 80.0961 33.3338 80.1311 33.4082 80.1311C33.4241 80.1311 33.4402 80.1296 33.4564 80.1266C33.498 80.1186 37.6193 79.2787 38.2024 74.4202C38.4082 72.7053 38.2638 70.8986 38.1242 69.1511C37.8806 66.1017 37.6504 63.2216 39.3879 61.5226C39.4892 61.4236 39.491 61.2613 39.3919 61.1599C39.293 61.0586 39.1306 61.0569 39.0292 61.1559Z" fill="#121D3F"/>
<path d="M39.5292 76.5954C39.208 78.5622 38.3595 80.15 37.4837 80.8894C36.8625 81.4136 36.2715 81.9046 35.8503 82.256C35.6745 82.1803 35.5018 82.1016 35.3291 82.0197C35.7533 81.6683 36.4321 81.1046 37.1534 80.4985C37.9655 79.8137 38.7777 78.2288 39.0504 76.2923C39.1353 75.7105 39.1716 75.0953 39.1413 74.4649C39.1353 74.3226 39.2443 74.2043 39.3868 74.1953C39.5322 74.1953 39.6474 74.2983 39.6535 74.4408C39.6898 75.1923 39.6413 75.9165 39.5292 76.5954Z" fill="#121D3F"/>
<path d="M38.3523 46.9996C38.1077 46.0452 36.8776 44.6307 35.4458 45.3128C34.57 45.7299 35.1546 52.1294 38.6374 53.634C38.6374 53.634 38.7809 53.6761 38.7872 53.6149C38.8395 53.1101 39.2806 50.6231 38.3523 46.9996Z" fill="#8C4949"/>
<path d="M62.6165 46.9109C62.861 45.9564 63.7874 45.0132 64.9666 45.3129C66.0973 45.6003 65.0452 51.838 62.0578 53.489C62.0578 53.489 61.5757 50.9738 62.6165 46.9109Z" fill="#8C4949"/>
<path d="M50.5817 88.7054C50.0604 88.7054 49.5412 88.6949 49.0197 88.6734C45.7657 88.5689 42.5171 88.0553 39.3641 87.147C33.8965 85.5847 28.7129 82.7791 24.375 79.0342C24.342 79.0076 24.3054 78.9768 24.2665 78.9419C17.7396 73.2908 13.3209 66.007 11.4877 57.8756C9.78151 50.3072 10.3426 42.3603 13.1102 34.8939C15.8751 27.4349 20.623 21.0569 26.8405 16.4495C33.5476 11.4792 41.7022 8.83926 50.4229 8.81494C61.0979 8.81484 71.1279 12.9697 78.6723 20.5141C86.2166 28.0586 90.3714 38.0887 90.3714 48.7569C90.3714 60.1772 85.4688 71.0712 76.9187 78.652C76.8818 78.6858 76.8437 78.7192 76.8043 78.7514C69.6293 85.1244 60.153 88.7049 50.5817 88.7054ZM27.4125 75.2839L27.4885 75.348C31.3078 78.6557 35.8745 81.1319 40.6949 82.5095C43.4724 83.3097 46.3275 83.7606 49.1861 83.8515L49.2085 83.8525C58.0907 84.2169 66.9969 81.0297 73.6442 75.1052L73.743 75.0197C81.2448 68.3549 85.5467 58.786 85.5467 48.757C85.5467 39.3775 81.8938 30.5588 75.2607 23.9259C68.6277 17.2927 59.8093 13.6397 50.4297 13.6397C32.4998 13.6898 21.7313 25.5182 17.6342 36.5709C13.531 47.6402 13.9488 63.6184 27.4125 75.2839Z" fill="#E6EDED"/>
<path d="M86.2693 85.9755C89.9985 82.2462 89.9984 76.1998 86.269 72.4706C82.5397 68.7413 76.4933 68.7414 72.7641 72.4708C69.0349 76.2002 69.035 82.2465 72.7643 85.9757C76.4937 89.705 82.54 89.7049 86.2693 85.9755Z" fill="#73E09E"/>
<path d="M79.5174 91.185C72.9216 91.185 67.5557 85.8191 67.5557 79.2233C67.5557 72.6274 72.9216 67.2615 79.5174 67.2615C86.1133 67.2615 91.4792 72.6274 91.4792 79.2233C91.4792 85.8191 86.1132 91.185 79.5174 91.185ZM79.5174 72.0862C75.582 72.0862 72.3803 75.2878 72.3803 79.2233C72.3803 83.1587 75.582 86.3603 79.5174 86.3603C83.4529 86.3603 86.6545 83.1587 86.6545 79.2233C86.6545 75.2878 83.4529 72.0862 79.5174 72.0862Z" fill="#E6EDED"/>
</svg>
